<mxfile host="app.diagrams.net" modified="2021-04-01T17:18:02.733Z" agent="5.0 (Windows NT 10.0; Win64; x64) AppleWebKit/537.36 (KHTML, like Gecko) Chrome/89.0.4389.114 Safari/537.36" etag="Pgz4llGecX52sDOyfvVR" version="14.5.5" type="github">
  <diagram id="sD5aDXW3nQzHqlUC7XGk" name="Page-1">
    <mxGraphModel dx="868" dy="450" grid="1" gridSize="10" guides="1" tooltips="1" connect="1" arrows="1" fold="1" page="1" pageScale="1" pageWidth="850" pageHeight="1100" math="0" shadow="0">
      <root>
        <mxCell id="0" />
        <mxCell id="1" parent="0" />
        <mxCell id="UCM9uOW9E2vXzlRKvlth-1" value="" style="whiteSpace=wrap;html=1;aspect=fixed;" vertex="1" parent="1">
          <mxGeometry x="40" y="20" width="350" height="350" as="geometry" />
        </mxCell>
        <mxCell id="UCM9uOW9E2vXzlRKvlth-2" value="" style="rounded=0;whiteSpace=wrap;html=1;strokeColor=#FFFF33;fillColor=#FFFF99;" vertex="1" parent="1">
          <mxGeometry x="160" y="80" width="180" height="230" as="geometry" />
        </mxCell>
        <mxCell id="UCM9uOW9E2vXzlRKvlth-16" style="edgeStyle=orthogonalEdgeStyle;rounded=0;orthogonalLoop=1;jettySize=auto;html=1;entryX=1.022;entryY=0.309;entryDx=0;entryDy=0;entryPerimeter=0;" edge="1" parent="1" source="UCM9uOW9E2vXzlRKvlth-3" target="UCM9uOW9E2vXzlRKvlth-2">
          <mxGeometry relative="1" as="geometry">
            <Array as="points">
              <mxPoint x="360" y="74" />
              <mxPoint x="380" y="74" />
              <mxPoint x="380" y="151" />
            </Array>
          </mxGeometry>
        </mxCell>
        <mxCell id="UCM9uOW9E2vXzlRKvlth-6" value="" style="rounded=0;whiteSpace=wrap;html=1;fillColor=#B5739D;" vertex="1" parent="1">
          <mxGeometry x="164" y="110" width="170" height="70" as="geometry" />
        </mxCell>
        <mxCell id="UCM9uOW9E2vXzlRKvlth-7" value="" style="rounded=0;whiteSpace=wrap;html=1;fillColor=#B5739D;" vertex="1" parent="1">
          <mxGeometry x="164" y="200" width="170" height="70" as="geometry" />
        </mxCell>
        <mxCell id="UCM9uOW9E2vXzlRKvlth-8" value="" style="rounded=0;whiteSpace=wrap;html=1;fillColor=#66B2FF;" vertex="1" parent="1">
          <mxGeometry x="180" y="115" width="60" height="60" as="geometry" />
        </mxCell>
        <mxCell id="UCM9uOW9E2vXzlRKvlth-9" value="" style="rounded=0;whiteSpace=wrap;html=1;fillColor=#66B2FF;" vertex="1" parent="1">
          <mxGeometry x="180" y="205" width="60" height="60" as="geometry" />
        </mxCell>
        <mxCell id="UCM9uOW9E2vXzlRKvlth-10" value="" style="rounded=0;whiteSpace=wrap;html=1;strokeColor=#FFFF33;fillColor=#66FF66;" vertex="1" parent="1">
          <mxGeometry x="290" y="120" width="40" height="20" as="geometry" />
        </mxCell>
        <mxCell id="UCM9uOW9E2vXzlRKvlth-11" value="" style="rounded=0;whiteSpace=wrap;html=1;strokeColor=#FFFF33;fillColor=#66FF66;" vertex="1" parent="1">
          <mxGeometry x="290" y="210" width="40" height="20" as="geometry" />
        </mxCell>
        <mxCell id="UCM9uOW9E2vXzlRKvlth-12" value="" style="rounded=0;whiteSpace=wrap;html=1;strokeColor=#3333FF;fillColor=#FFB366;" vertex="1" parent="1">
          <mxGeometry x="243" y="120" width="40" height="20" as="geometry" />
        </mxCell>
        <mxCell id="UCM9uOW9E2vXzlRKvlth-13" value="" style="rounded=0;whiteSpace=wrap;html=1;strokeColor=#3333FF;fillColor=#FFB366;" vertex="1" parent="1">
          <mxGeometry x="243" y="210" width="40" height="20" as="geometry" />
        </mxCell>
        <mxCell id="UCM9uOW9E2vXzlRKvlth-14" value="" style="rounded=0;whiteSpace=wrap;html=1;strokeColor=#3333FF;fillColor=#00CC00;" vertex="1" parent="1">
          <mxGeometry x="247" y="150" width="80" height="20" as="geometry" />
        </mxCell>
        <mxCell id="UCM9uOW9E2vXzlRKvlth-15" value="" style="rounded=0;whiteSpace=wrap;html=1;strokeColor=#3333FF;fillColor=#FF3333;" vertex="1" parent="1">
          <mxGeometry x="163" y="284" width="80" height="20" as="geometry" />
        </mxCell>
        <mxCell id="UCM9uOW9E2vXzlRKvlth-17" value="&lt;h1 style=&quot;font-size: 23px&quot;&gt;Cart List&lt;/h1&gt;&lt;div style=&quot;font-size: 16px&quot;&gt;&lt;div&gt;&lt;font style=&quot;font-size: 16px&quot;&gt;cartQtyIcon id=&quot;cartQtyIcon&quot;&lt;/font&gt;&lt;/div&gt;&lt;div&gt;&lt;font color=&quot;#ffff66&quot; style=&quot;font-size: 16px&quot;&gt;Cart Paner&amp;nbsp; id=&quot;cartPanel&lt;/font&gt;&lt;/div&gt;&lt;/div&gt;&lt;div style=&quot;font-size: 16px&quot;&gt;&lt;font color=&quot;#ff3399&quot; style=&quot;font-size: 16px&quot;&gt;giftPanel id=&quot;giftPanel&quot;&lt;/font&gt;&lt;/div&gt;&lt;div style=&quot;font-size: 16px&quot;&gt;&lt;font color=&quot;#66ffff&quot;&gt;giftImgCart id=&quot;giftImgCart&quot;&lt;/font&gt;&lt;/div&gt;&lt;div style=&quot;font-size: 16px&quot;&gt;&lt;font color=&quot;#ff9933&quot;&gt;giftPrice id=&quot;giftPrice&quot;&lt;/font&gt;&lt;/div&gt;&lt;div style=&quot;font-size: 16px&quot;&gt;&lt;font color=&quot;#b3ff66&quot;&gt;giftQty id=&quot;giftQty&quot;&lt;/font&gt;&lt;/div&gt;&lt;div style=&quot;font-size: 16px&quot;&gt;&lt;font color=&quot;#00cc00&quot;&gt;giftValue id =&quot;giftValu&quot;&lt;/font&gt;&lt;/div&gt;&lt;div style=&quot;font-size: 16px&quot;&gt;&lt;font color=&quot;#ff0000&quot;&gt;giftTotals id=&quot;giftTotals&quot;&lt;/font&gt;&lt;/div&gt;&lt;div style=&quot;font-size: 16px&quot;&gt;&lt;font color=&quot;#3333ff&quot;&gt;btnSubmet id=&quot;btnSubmit&lt;/font&gt;&lt;/div&gt;" style="text;html=1;strokeColor=#6F0000;spacing=5;spacingTop=-20;whiteSpace=wrap;overflow=hidden;rounded=0;fontColor=#ffffff;fillColor=#000000;align=left;" vertex="1" parent="1">
          <mxGeometry x="400" y="34" width="340" height="270" as="geometry" />
        </mxCell>
        <mxCell id="UCM9uOW9E2vXzlRKvlth-18" value="" style="shape=hexagon;perimeter=hexagonPerimeter2;whiteSpace=wrap;html=1;fixedSize=1;strokeColor=#3333FF;fillColor=#0000FF;" vertex="1" parent="1">
          <mxGeometry x="275" y="274" width="59" height="30" as="geometry" />
        </mxCell>
        <mxCell id="UCM9uOW9E2vXzlRKvlth-19" value="" style="rounded=0;whiteSpace=wrap;html=1;strokeColor=#3333FF;fillColor=#00CC00;" vertex="1" parent="1">
          <mxGeometry x="257" y="250" width="80" height="20" as="geometry" />
        </mxCell>
        <mxCell id="UCM9uOW9E2vXzlRKvlth-21" value="" style="rounded=0;whiteSpace=wrap;html=1;strokeColor=#3333FF;fillColor=#999999;" vertex="1" parent="1">
          <mxGeometry x="40" y="20" width="350" height="40" as="geometry" />
        </mxCell>
        <mxCell id="UCM9uOW9E2vXzlRKvlth-3" value="cart" style="text;html=1;strokeColor=none;fillColor=#FFFFFF;align=center;verticalAlign=middle;whiteSpace=wrap;rounded=0;" vertex="1" parent="1">
          <mxGeometry x="340" y="34" width="40" height="20" as="geometry" />
        </mxCell>
      </root>
    </mxGraphModel>
  </diagram>
</mxfile>
